<?xml version="1.0" standalone="no"?><!DOCTYPE svg PUBLIC "-//W3C//DTD SVG 1.1//EN" "http://www.w3.org/Graphics/SVG/1.1/DTD/svg11.dtd"><svg t="1580368879823" class="icon" viewBox="0 0 1024 1024" version="1.1" xmlns="http://www.w3.org/2000/svg" p-id="4486" xmlns:xlink="http://www.w3.org/1999/xlink" width="200" height="200"><defs><style type="text/css"></style></defs><path d="M775.314286 24.380952h-151.161905C531.504762 24.380952 497.371429 34.133333 438.857143 97.52381L63.390476 472.990476c-43.885714 43.885714-53.638095 131.657143 0 185.295238l302.32381 302.32381c29.257143 29.257143 63.390476 39.009524 97.523809 39.009524 39.009524 0 68.266667-19.504762 92.647619-39.009524L926.47619 585.142857c63.390476-63.390476 73.142857-102.4 73.142858-185.295238V248.685714c0-170.666667-53.638095-224.304762-224.304762-224.304762z m-39.009524 375.466667c-63.390476 0-112.152381-48.761905-112.152381-112.152381s48.761905-112.152381 112.152381-112.152381 112.152381 48.761905 112.152381 112.152381-48.761905 112.152381-112.152381 112.152381z" fill="" p-id="4487"></path></svg>